<?xml version="1.0" standalone="no"?>
<!DOCTYPE svg PUBLIC "-//W3C//DTD SVG 20010904//EN"
 "http://www.w3.org/TR/2001/REC-SVG-20010904/DTD/svg10.dtd">
<svg version="1.0" xmlns="http://www.w3.org/2000/svg"
 width="115.000000pt" height="148.000000pt" viewBox="0 0 115.000000 148.000000"
 preserveAspectRatio="xMidYMid meet">

<g transform="translate(0.000000,148.000000) scale(0.100000,-0.100000)"
fill="#000000" stroke="none">
<path d="M415 1352 c-3 -11 -24 -49 -47 -84 -22 -34 -56 -92 -76 -128 -89
-168 -115 -212 -128 -217 -8 -3 -14 -16 -14 -29 0 -12 -13 -42 -28 -66 -32
-49 -72 -142 -72 -168 0 -12 11 -20 33 -25 30 -6 31 -7 10 -15 -14 -6 -24 -21
-28 -44 -9 -47 1 -73 33 -81 l27 -7 -34 -12 c-19 -7 -36 -17 -38 -23 -6 -18
44 -131 81 -181 19 -26 51 -57 72 -67 20 -11 35 -23 33 -26 -6 -8 61 -63 96
-78 108 -47 142 -53 270 -48 94 4 135 10 170 26 61 27 135 81 135 99 0 8 20
36 45 64 49 55 93 138 99 191 4 32 2 35 -27 44 l-32 10 26 7 c30 9 40 39 32
93 -4 25 -11 33 -27 34 -17 0 -15 3 11 15 18 7 31 19 28 26 -31 103 -38 117
-47 112 -7 -5 -8 -2 -3 5 5 8 11 9 17 3 5 -5 18 -7 29 -5 16 5 19 15 20 72 2
90 0 101 -20 136 -18 32 -55 45 -74 26 -7 -7 -18 -29 -27 -51 -10 -25 -20 -36
-27 -32 -6 4 -34 50 -61 102 -27 52 -79 149 -115 215 -63 117 -66 120 -101
123 l-36 3 0 -111 0 -111 -62 3 -63 3 0 105 0 105 -37 3 c-29 2 -38 -1 -43
-16z m84 -249 c0 -5 -4 -17 -9 -28 -8 -18 -9 -17 -9 8 -1 15 4 27 9 27 6 0 10
-3 9 -7z m531 -137 c0 -8 -7 -16 -15 -20 -10 -4 -15 1 -15 14 0 11 7 20 15 20
8 0 15 -6 15 -14z m-933 -438 c-3 -7 -5 -2 -5 12 0 14 2 19 5 13 2 -7 2 -19 0
-25z m430 0 c-3 -8 -6 -5 -6 6 -1 11 2 17 5 13 3 -3 4 -12 1 -19z m-329 -3 c3
-3 3 -8 -1 -11 -9 -10 -78 6 -72 16 5 9 63 5 73 -5z m822 0 c-7 -8 -17 -15
-22 -15 -6 0 -5 7 2 15 7 8 17 15 22 15 6 0 5 -7 -2 -15z m1 -98 c-16 -16 -26
0 -10 19 9 11 15 12 17 4 2 -6 -1 -17 -7 -23z m-497 -192 c7 -38 6 -39 -10
-23 -12 11 -15 24 -10 43 9 34 11 31 20 -20z m256 41 c0 -3 -4 -8 -10 -11 -5
-3 -10 -1 -10 4 0 6 5 11 10 11 6 0 10 -2 10 -4z m-40 -20 c0 -24 -46 -47 -72
-37 -22 9 -22 10 -2 10 11 1 29 10 39 21 21 23 35 26 35 6z"/>
</g>
</svg>
